<svg width="48" height="48" viewBox="0 0 48 48" fill="none" xmlns="http://www.w3.org/2000/svg">
<path d="M34.16 24.0002C34.16 23.3532 34.685 22.8282 35.333 22.8282H37.8C37.236 16.1242 31.876 10.7642 25.172 10.2002V12.6672C25.172 12.978 25.0485 13.2761 24.8287 13.4959C24.6089 13.7157 24.3108 13.8392 24 13.8392C23.6892 13.8392 23.3911 13.7157 23.1713 13.4959C22.9515 13.2761 22.828 12.978 22.828 12.6672V10.2002C16.124 10.7642 10.764 16.1242 10.2 22.8282H12.667C12.9778 22.8282 13.2759 22.9517 13.4957 23.1715C13.7155 23.3913 13.839 23.6894 13.839 24.0002C13.839 24.311 13.7155 24.6091 13.4957 24.8289C13.2759 25.0487 12.9778 25.1722 12.667 25.1722H10.2C10.764 31.8762 16.124 37.2362 22.828 37.8002V35.3332C22.828 35.0224 22.9515 34.7243 23.1713 34.5045C23.3911 34.2847 23.6892 34.1612 24 34.1612C24.3108 34.1612 24.6089 34.2847 24.8287 34.5045C25.0485 34.7243 25.172 35.0224 25.172 35.3332V37.8002C31.876 37.2362 37.236 31.8762 37.8 25.1722H35.333C35.179 25.1723 35.0265 25.1421 34.8842 25.0833C34.7419 25.0244 34.6126 24.9381 34.5036 24.8293C34.3947 24.7204 34.3083 24.5912 34.2493 24.4489C34.1903 24.3067 34.16 24.1542 34.16 24.0002ZM31.077 18.4042L24.84 24.8172C24.6308 25.0321 24.3471 25.1586 24.0475 25.1707C23.7478 25.1828 23.4548 25.0796 23.229 24.8822L18.573 20.8122C18.4543 20.7118 18.3569 20.5887 18.2862 20.4503C18.2156 20.3118 18.1732 20.1606 18.1615 20.0056C18.1498 19.8506 18.1691 19.6948 18.2182 19.5473C18.2673 19.3998 18.3453 19.2636 18.4476 19.1465C18.5498 19.0295 18.6744 18.9339 18.814 18.8654C18.9535 18.797 19.1053 18.7569 19.2605 18.7477C19.4157 18.7385 19.5711 18.7602 19.7178 18.8116C19.8645 18.863 19.9995 18.9431 20.115 19.0472L23.935 22.3872L29.397 16.7702C29.6152 16.5542 29.9094 16.4325 30.2163 16.4312C30.5233 16.4298 30.8186 16.549 31.0386 16.763C31.2587 16.977 31.386 17.2689 31.3932 17.5758C31.4003 17.8827 31.2868 18.1801 31.077 18.4042Z" fill="black"/>
<path opacity="0.24" d="M24 4C12.972 4 4 12.972 4 24C4 35.028 12.972 44 24 44C35.028 44 44 35.028 44 24C44 12.972 35.028 4 24 4ZM24 40.194C15.07 40.194 7.806 32.93 7.806 24C7.806 15.07 15.07 7.806 24 7.806C32.93 7.806 40.194 15.07 40.194 24C40.194 32.93 32.93 40.194 24 40.194Z" fill="black"/>
</svg>
