<svg width="48" height="48" viewBox="0 0 48 48" fill="none" xmlns="http://www.w3.org/2000/svg">
<path d="M24.03 16.3799C19.828 16.3799 16.41 19.7979 16.41 23.9999C16.41 28.2029 19.828 31.6219 24.03 31.6219C28.233 31.6219 31.652 28.2029 31.652 24.0009C31.652 19.7979 28.232 16.3789 24.031 16.3789L24.03 16.3799ZM28.555 22.5649L23.095 28.0249C22.9863 28.1344 22.8569 28.2212 22.7145 28.2805C22.5721 28.3398 22.4193 28.3703 22.265 28.3703C22.1107 28.3703 21.958 28.3398 21.8155 28.2805C21.6731 28.2212 21.5437 28.1344 21.435 28.0249L19.35 25.9399C19.1299 25.7198 19.0062 25.4212 19.0062 25.1099C19.0062 24.7986 19.1299 24.5 19.35 24.2799C19.5701 24.0598 19.8687 23.9361 20.18 23.9361C20.4913 23.9361 20.7899 24.0598 21.01 24.2799L22.266 25.5369L26.896 20.9069C27.005 20.7979 27.1344 20.7114 27.2768 20.6525C27.4192 20.5935 27.5719 20.5631 27.726 20.5631C27.8801 20.5631 28.0328 20.5935 28.1752 20.6525C28.3176 20.7114 28.447 20.7979 28.556 20.9069C28.665 21.0159 28.7515 21.1453 28.8105 21.2877C28.8694 21.4301 28.8998 21.5828 28.8998 21.7369C28.8998 21.8911 28.8694 22.0437 28.8105 22.1861C28.7515 22.3285 28.665 22.4579 28.556 22.5669L28.555 22.5649Z" fill="black"/>
<path opacity="0.24" d="M41.022 14.8528V14.8218C41.004 14.4378 40.992 14.0318 40.985 13.5788C40.9649 12.511 40.5426 11.4902 39.8025 10.7203C39.0625 9.95034 38.0591 9.48805 36.993 9.42577C32.394 9.16877 28.837 7.66977 25.797 4.70577L25.771 4.68177C25.2978 4.24349 24.6765 4 24.0315 4C23.3865 4 22.7652 4.24349 22.292 4.68177L22.266 4.70677C19.226 7.66977 15.669 9.16877 11.07 9.42677C10.004 9.48903 9.00083 9.95118 8.26078 10.7209C7.52073 11.4906 7.09834 12.5112 7.078 13.5788C7.071 14.0288 7.059 14.4348 7.042 14.8218L7.04 14.8938C6.95 19.5838 6.84 25.4198 8.792 30.7178C9.866 33.6308 11.492 36.1628 13.624 38.2448C16.054 40.6148 19.235 42.4978 23.081 43.8388C23.3866 43.9444 23.7076 43.9988 24.031 43.9998C24.3552 43.9998 24.6771 43.945 24.983 43.8378C28.825 42.4948 32.003 40.6118 34.43 38.2408C36.562 36.1588 38.188 33.6258 39.263 30.7118C41.223 25.3988 41.111 19.5518 41.022 14.8528ZM24.031 33.9688C18.534 33.9688 14.062 29.4968 14.062 24.0008C14.062 18.5038 18.534 14.0318 24.031 14.0318C29.527 14.0318 33.999 18.5038 33.999 24.0008C33.999 29.4968 29.527 33.9688 24.031 33.9688Z" fill="black"/>
</svg>
