<svg width="27" height="27" viewBox="0 0 27 27" fill="none" xmlns="http://www.w3.org/2000/svg">
<path d="M13.5 2.25C7.28663 2.25 2.25 7.28663 2.25 13.5C2.25 19.7134 7.28663 24.75 13.5 24.75C19.7134 24.75 24.75 19.7134 24.75 13.5C24.75 7.28663 19.7134 2.25 13.5 2.25ZM12.7046 8.20463C12.9156 7.99372 13.2017 7.87524 13.5 7.87524C13.7983 7.87524 14.0844 7.99372 14.2954 8.20463L18.7954 12.7046C19.0063 12.9156 19.1248 13.2017 19.1248 13.5C19.1248 13.7983 19.0063 14.0844 18.7954 14.2954L14.2954 18.7954C14.0832 19.0003 13.799 19.1137 13.504 19.1111C13.2091 19.1086 12.9269 18.9903 12.7183 18.7817C12.5097 18.5731 12.3914 18.2909 12.3889 17.996C12.3863 17.701 12.4997 17.4168 12.7046 17.2046L15.2843 14.625H9C8.70163 14.625 8.41548 14.5065 8.2045 14.2955C7.99353 14.0845 7.875 13.7984 7.875 13.5C7.875 13.2016 7.99353 12.9155 8.2045 12.7045C8.41548 12.4935 8.70163 12.375 9 12.375H15.2843L12.7046 9.79537C12.4937 9.58441 12.3752 9.29831 12.3752 9C12.3752 8.70169 12.4937 8.41559 12.7046 8.20463Z" fill="black"/>
</svg>
