<?xml version="1.0" encoding="UTF-8"?>
<svg xmlns="http://www.w3.org/2000/svg" xmlns:xlink="http://www.w3.org/1999/xlink" width="43px" height="43px" viewBox="0 0 43 43" version="1.1">
<g id="surface1">
<path style=" stroke:none;fill-rule:nonzero;fill:rgb(0%,0%,0%);fill-opacity:1;" d="M 15.179688 42.996094 C 14.574219 42.996094 13.972656 42.765625 13.515625 42.308594 L 0.691406 29.484375 C -0.226562 28.566406 -0.226562 27.078125 0.691406 26.160156 L 19.214844 7.636719 C 20.074219 6.773438 21.734375 6.3125 22.914062 6.601562 L 31.585938 8.726562 C 32.621094 8.980469 33.660156 9.898438 34.117188 10.953125 C 34.1875 11.125 34.109375 11.320312 33.941406 11.394531 C 33.769531 11.46875 33.570312 11.390625 33.5 11.21875 C 33.132812 10.371094 32.242188 9.582031 31.425781 9.378906 L 22.753906 7.253906 C 21.792969 7.015625 20.390625 7.410156 19.691406 8.109375 L 1.164062 26.636719 C 0.851562 26.949219 0.675781 27.371094 0.675781 27.820312 C 0.675781 28.273438 0.851562 28.695312 1.167969 29.011719 L 13.992188 41.835938 C 14.644531 42.488281 15.710938 42.488281 16.367188 41.832031 L 34.890625 23.308594 C 35.589844 22.609375 35.980469 21.207031 35.746094 20.246094 L 34.179688 13.851562 C 34.15625 13.765625 34.171875 13.671875 34.21875 13.597656 C 34.261719 13.519531 34.335938 13.464844 34.425781 13.445312 C 34.605469 13.398438 34.785156 13.511719 34.832031 13.691406 L 36.398438 20.085938 C 36.691406 21.285156 36.238281 22.910156 35.363281 23.785156 L 16.839844 42.308594 C 16.382812 42.765625 15.78125 42.996094 15.179688 42.996094 Z M 15.179688 42.996094 "/>
<path style=" stroke:none;fill-rule:nonzero;fill:rgb(0%,0%,0%);fill-opacity:1;" d="M 27.878906 17.804688 C 27.191406 17.804688 26.503906 17.542969 25.980469 17.019531 C 24.933594 15.96875 24.933594 14.265625 25.980469 13.21875 C 26.902344 12.296875 28.347656 12.167969 29.414062 12.914062 C 29.542969 13.003906 29.667969 13.105469 29.78125 13.214844 C 29.914062 13.347656 29.914062 13.558594 29.785156 13.691406 C 29.652344 13.824219 29.441406 13.824219 29.308594 13.695312 C 29.222656 13.609375 29.128906 13.53125 29.03125 13.464844 C 28.230469 12.90625 27.148438 13 26.457031 13.691406 C 25.667969 14.480469 25.667969 15.757812 26.457031 16.542969 C 27.242188 17.328125 28.519531 17.328125 29.308594 16.542969 C 29.542969 16.304688 29.71875 16.007812 29.8125 15.691406 C 29.867188 15.515625 30.054688 15.410156 30.230469 15.464844 C 30.410156 15.519531 30.511719 15.703125 30.457031 15.882812 C 30.332031 16.304688 30.097656 16.699219 29.78125 17.015625 C 29.257812 17.542969 28.570312 17.804688 27.878906 17.804688 Z M 27.878906 17.804688 "/>
<path style=" stroke:none;fill-rule:nonzero;fill:rgb(0%,0%,0%);fill-opacity:1;" d="M 27.875 16.460938 C 27.519531 16.460938 27.183594 16.324219 26.929688 16.070312 C 26.675781 15.816406 26.535156 15.476562 26.539062 15.117188 C 26.539062 14.378906 27.140625 13.773438 27.878906 13.773438 C 28.066406 13.773438 28.214844 13.925781 28.214844 14.109375 C 28.214844 14.296875 28.066406 14.445312 27.878906 14.445312 C 27.511719 14.445312 27.210938 14.746094 27.207031 15.117188 C 27.207031 15.296875 27.277344 15.46875 27.40625 15.59375 C 27.53125 15.71875 27.699219 15.789062 27.878906 15.789062 L 27.882812 15.789062 C 28.070312 15.789062 28.253906 15.707031 28.378906 15.566406 C 28.503906 15.433594 28.710938 15.425781 28.847656 15.546875 C 28.984375 15.667969 28.996094 15.875 28.878906 16.015625 C 28.625 16.300781 28.265625 16.460938 27.882812 16.460938 Z M 27.875 16.460938 "/>
<path style=" stroke:none;fill-rule:nonzero;fill:rgb(0%,0%,0%);fill-opacity:1;" d="M 27.878906 15.453125 C 27.722656 15.453125 27.585938 15.34375 27.554688 15.1875 C 27.515625 15.007812 27.628906 14.828125 27.808594 14.789062 C 39.648438 12.242188 42.324219 2.101562 42.324219 0.339844 C 42.324219 0.152344 42.472656 0.00390625 42.660156 0.00390625 C 42.746094 0.00390625 42.832031 0.0390625 42.898438 0.101562 C 42.960938 0.164062 42.996094 0.25 42.996094 0.339844 C 42.996094 2.183594 40.21875 12.804688 27.953125 15.445312 C 27.929688 15.453125 27.90625 15.453125 27.878906 15.453125 Z M 27.878906 15.453125 "/>
<path style=" stroke:none;fill-rule:nonzero;fill:rgb(0%,0%,0%);fill-opacity:1;" d="M 31.027344 8.066406 C 30.957031 8.066406 30.890625 8.042969 30.832031 8.003906 C 30.761719 7.953125 30.710938 7.875 30.695312 7.785156 C 30.679688 7.699219 30.699219 7.609375 30.75 7.535156 C 35.105469 1.3125 41.566406 0.00390625 42.660156 0.00390625 C 42.847656 0.00390625 42.996094 0.152344 42.996094 0.339844 C 42.996094 0.527344 42.847656 0.675781 42.660156 0.675781 C 41.683594 0.675781 35.4375 2.011719 31.300781 7.921875 C 31.238281 8.011719 31.136719 8.066406 31.027344 8.066406 Z M 13.105469 25.527344 C 11.4375 25.527344 10.082031 24.171875 10.082031 22.507812 C 10.082031 20.839844 11.4375 19.484375 13.105469 19.484375 C 14.773438 19.484375 16.128906 20.839844 16.128906 22.503906 C 16.128906 24.171875 14.773438 25.527344 13.105469 25.527344 Z M 13.105469 20.15625 C 11.808594 20.15625 10.753906 21.210938 10.753906 22.507812 C 10.753906 23.800781 11.808594 24.855469 13.105469 24.855469 C 14.402344 24.855469 15.457031 23.800781 15.457031 22.503906 C 15.457031 21.210938 14.402344 20.15625 13.105469 20.15625 Z M 20.496094 32.917969 C 18.828125 32.917969 17.472656 31.5625 17.472656 29.894531 C 17.472656 28.226562 18.828125 26.871094 20.496094 26.871094 C 22.160156 26.871094 23.519531 28.226562 23.519531 29.894531 C 23.519531 31.5625 22.160156 32.917969 20.496094 32.917969 Z M 20.496094 27.542969 C 19.199219 27.542969 18.144531 28.597656 18.144531 29.894531 C 18.144531 31.191406 19.199219 32.246094 20.496094 32.246094 C 21.792969 32.246094 22.847656 31.191406 22.847656 29.894531 C 22.847656 28.597656 21.792969 27.542969 20.496094 27.542969 Z M 10.417969 32.917969 C 10.28125 32.917969 10.160156 32.835938 10.109375 32.710938 C 10.054688 32.585938 10.085938 32.441406 10.179688 32.34375 L 22.945312 19.582031 C 23.074219 19.449219 23.289062 19.449219 23.417969 19.582031 C 23.550781 19.710938 23.550781 19.925781 23.417969 20.054688 L 10.65625 32.820312 C 10.59375 32.882812 10.507812 32.917969 10.417969 32.917969 Z M 10.417969 32.917969 "/>
</g>
</svg>
