<svg width="48" height="48" viewBox="0 0 48 48" fill="none" xmlns="http://www.w3.org/2000/svg">
<path opacity="0.24" d="M12.793 35.1251C9.507 31.8981 7.497 27.7151 7.031 23.2031C5.28058 25.4093 4.33203 28.1449 4.341 30.9611C4.34507 32.8107 4.75756 34.6365 5.549 36.3081L3.923 41.0401C3.78525 41.4355 3.7622 41.8617 3.85652 42.2696C3.95084 42.6775 4.15868 43.0504 4.456 43.3451C4.75065 43.6423 5.12335 43.85 5.53104 43.9443C5.93874 44.0386 6.3648 44.0157 6.76 43.8781L11.492 42.2521C13.153 43.0401 14.991 43.4571 16.839 43.4601C19.737 43.4631 22.495 42.4801 24.726 40.6681C20.24 40.2621 16.056 38.3301 12.793 35.1251Z" fill="black"/>
<path d="M44.292 35.5762L41.932 28.7072C43.0736 26.3662 43.6692 23.7967 43.674 21.1922C43.681 16.6672 41.931 12.3892 38.744 9.14521C35.558 5.90021 31.311 4.07421 26.787 4.00221C22.096 3.92821 17.687 5.71221 14.371 9.02721C12.7379 10.6498 11.4506 12.5866 10.5869 14.7206C9.72324 16.8546 9.3011 19.1415 9.346 21.4432C9.418 25.9672 11.244 30.2142 14.488 33.4012C17.726 36.5812 21.994 38.3312 26.509 38.3312H26.536C29.1406 38.3261 31.7101 37.7301 34.051 36.5882L40.92 38.9482C41.3898 39.1119 41.8962 39.1393 42.3809 39.0273C42.8656 38.9153 43.3087 38.6684 43.659 38.3152C44.0122 37.9649 44.2591 37.5218 44.3711 37.0371C44.4831 36.5525 44.4557 36.046 44.292 35.5762ZM28.167 27.1222H19.304C19.1422 27.1269 18.9812 27.099 18.8304 27.0403C18.6796 26.9816 18.5421 26.8933 18.426 26.7805C18.3099 26.6678 18.2177 26.5328 18.1547 26.3838C18.0917 26.2347 18.0592 26.0745 18.0592 25.9127C18.0592 25.7509 18.0917 25.5907 18.1547 25.4416C18.2177 25.2926 18.3099 25.1577 18.426 25.0449C18.5421 24.9321 18.6796 24.8438 18.8304 24.7851C18.9812 24.7264 19.1422 24.6986 19.304 24.7032H28.167C28.4818 24.7123 28.7806 24.8437 29 25.0695C29.2195 25.2953 29.3422 25.5978 29.3422 25.9127C29.3422 26.2276 29.2195 26.5301 29 26.7559C28.7806 26.9818 28.4818 27.1132 28.167 27.1222ZM33.714 22.1482H19.304C18.9892 22.1392 18.6904 22.0078 18.471 21.7819C18.2515 21.5561 18.1288 21.2536 18.1288 20.9387C18.1288 20.6238 18.2515 20.3213 18.471 20.0955C18.6904 19.8697 18.9892 19.7383 19.304 19.7292H33.714C34.0288 19.7383 34.3276 19.8697 34.547 20.0955C34.7665 20.3213 34.8892 20.6238 34.8892 20.9387C34.8892 21.2536 34.7665 21.5561 34.547 21.7819C34.3276 22.0078 34.0288 22.1392 33.714 22.1482ZM33.714 17.1742H19.304C18.9831 17.1742 18.6753 17.0467 18.4484 16.8198C18.2215 16.5929 18.094 16.2851 18.094 15.9642C18.094 15.6433 18.2215 15.3355 18.4484 15.1086C18.6753 14.8817 18.9831 14.7542 19.304 14.7542H33.714C34.0349 14.7542 34.3427 14.8817 34.5696 15.1086C34.7965 15.3355 34.924 15.6433 34.924 15.9642C34.924 16.2851 34.7965 16.5929 34.5696 16.8198C34.3427 17.0467 34.0349 17.1742 33.714 17.1742Z" fill="black"/>
</svg>
