<svg width="94" height="21" viewBox="0 0 94 21" fill="none" xmlns="http://www.w3.org/2000/svg">
<path d="M0.350999 11.356L9.543 20.646C9.65254 20.7582 9.78342 20.8474 9.92794 20.9082C10.0725 20.9691 10.2277 21.0005 10.3845 21.0005C10.5413 21.0005 10.6965 20.9691 10.8411 20.9082C10.9856 20.8474 11.1165 20.7582 11.226 20.646C11.4504 20.4194 11.5763 20.1134 11.5763 19.7945C11.5763 19.4756 11.4504 19.1696 11.226 18.943L4.067 11.701L92.804 11.701C93.465 11.7 94 11.159 94 10.49C94 9.81998 93.465 9.27898 92.804 9.27898L4.067 9.27898L11.227 2.05598C11.4514 1.8294 11.5773 1.52338 11.5773 1.20448C11.5773 0.885567 11.4514 0.579554 11.227 0.352976C10.993 0.116976 10.691 -0.0010239 10.38 -0.00102393C10.069 -0.00102395 9.767 0.116976 9.534 0.352976L0.342004 9.65297C0.121362 9.88193 -0.00109006 10.188 0.000779116 10.506C0.00264829 10.824 0.128678 11.1286 0.351998 11.355L0.350999 11.356Z" fill="black"/>
</svg>
