<svg width="94" height="21" viewBox="0 0 94 21" fill="none" xmlns="http://www.w3.org/2000/svg">
<g clip-path="url(#clip0_1_123)">
<path d="M93.649 9.64402L84.457 0.354017C84.3475 0.241806 84.2166 0.152637 84.0721 0.0917558C83.9275 0.0308748 83.7723 -0.000488281 83.6155 -0.000488281C83.4587 -0.000488281 83.3035 0.0308748 83.1589 0.0917558C83.0144 0.152637 82.8835 0.241806 82.774 0.354017C82.5496 0.580594 82.4237 0.886609 82.4237 1.20552C82.4237 1.52443 82.5496 1.83044 82.774 2.05702L89.933 9.29902H1.196C0.535 9.30002 0 9.84102 0 10.51C0 11.18 0.535 11.721 1.196 11.721H89.933L82.773 18.944C82.5486 19.1706 82.4227 19.4766 82.4227 19.7955C82.4227 20.1144 82.5486 20.4204 82.773 20.647C83.007 20.883 83.309 21.001 83.62 21.001C83.931 21.001 84.233 20.883 84.466 20.647L93.658 11.347C93.8786 11.1181 94.0011 10.8119 93.9992 10.494C93.9974 10.176 93.8713 9.87137 93.648 9.64502L93.649 9.64402Z" fill="black"/>
</g>
<defs>
<clipPath id="clip0_1_123">
<rect width="94" height="21" fill="white"/>
</clipPath>
</defs>
</svg>
